<svg id="logoDisplay" width="400" height="400" viewBox="0 0 400 400" xmlns="http://www.w3.org/2000/svg">
                
                
                
                
                
                <g xmlns="http://www.w3.org/2000/svg">
                    <circle cx="181.060774133176" cy="210.07016502175736" r="3.3000000000000003" fill="#3B82F6" opacity="1"/><circle cx="179.29479754158166" cy="205.60331073169309" r="3.3000000000000003" fill="#3B82F6" opacity="1"/><circle cx="178.56706625864845" cy="200.8554830441537" r="3.3000000000000003" fill="#3B82F6" opacity="1"/><circle cx="178.9140717696439" cy="196.06475786459438" r="3.3000000000000003" fill="#3B82F6" opacity="1"/><circle cx="180.31841376927787" cy="191.4713621578444" r="3.3000000000000003" fill="#3B82F6" opacity="1"/><circle cx="182.70967268566716" cy="187.30562796499032" r="3.3000000000000003" fill="#3B82F6" opacity="1"/><circle cx="185.9679408117164" cy="183.77644259305296" r="3.3000000000000003" fill="#3B82F6" opacity="1"/><circle cx="189.92983497824264" cy="181.060774133176" r="3.3000000000000003" fill="#3B82F6" opacity="1"/><circle cx="194.39668926830694" cy="179.29479754158166" r="3.3000000000000003" fill="#3B82F6" opacity="1"/><circle cx="199.1445169558463" cy="178.56706625864845" r="3.3000000000000003" fill="#3B82F6" opacity="1"/><circle cx="203.93524213540562" cy="178.9140717696439" r="3.3000000000000003" fill="#3B82F6" opacity="1"/><circle cx="208.5286378421556" cy="180.31841376927787" r="3.3000000000000003" fill="#3B82F6" opacity="1"/><circle cx="212.69437203500968" cy="182.70967268566716" r="3.3000000000000003" fill="#3B82F6" opacity="1"/><circle cx="216.22355740694704" cy="185.9679408117164" r="3.3000000000000003" fill="#3B82F6" opacity="1"/><circle cx="218.939225866824" cy="189.92983497824264" r="3.3000000000000003" fill="#3B82F6" opacity="1"/><circle cx="220.70520245841834" cy="194.39668926830694" r="3.3000000000000003" fill="#3B82F6" opacity="1"/><circle cx="221.43293374135155" cy="199.14451695584629" r="3.3000000000000003" fill="#3B82F6" opacity="1"/><circle cx="221.0859282303561" cy="203.93524213540562" r="3.3000000000000003" fill="#3B82F6" opacity="1"/><circle cx="219.68158623072213" cy="208.5286378421556" r="3.3000000000000003" fill="#3B82F6" opacity="1"/><circle cx="217.29032731433284" cy="212.69437203500968" r="3.3000000000000003" fill="#3B82F6" opacity="1"/><circle cx="214.0320591882836" cy="216.22355740694704" r="3.3000000000000003" fill="#3B82F6" opacity="1"/><circle cx="210.07016502175736" cy="218.939225866824" r="3.3000000000000003" fill="#3B82F6" opacity="1"/><circle cx="205.60331073169306" cy="220.70520245841834" r="3.3000000000000003" fill="#3B82F6" opacity="1"/><circle cx="200.85548304415371" cy="221.43293374135155" r="3.3000000000000003" fill="#3B82F6" opacity="1"/><circle cx="196.06475786459438" cy="221.0859282303561" r="3.3000000000000003" fill="#3B82F6" opacity="1"/><circle cx="191.4713621578444" cy="219.68158623072213" r="3.3000000000000003" fill="#3B82F6" opacity="1"/><circle cx="187.30562796499032" cy="217.29032731433284" r="3.3000000000000003" fill="#3B82F6" opacity="1"/><circle cx="183.77644259305296" cy="214.0320591882836" r="3.3000000000000003" fill="#3B82F6" opacity="1"/><circle cx="160.10471851855232" cy="215.77265087155797" r="4.4" fill="#2563EB" opacity="1"/><circle cx="157.59523151648008" cy="206.49966228807904" r="4.4" fill="#2563EB" opacity="1"/><circle cx="157.21209667306437" cy="196.9007534972497" r="4.4" fill="#2563EB" opacity="1"/><circle cx="158.97452596918578" cy="187.4572538673946" r="4.4" fill="#2563EB" opacity="1"/><circle cx="162.79414384067297" cy="178.64269990257506" r="4.4" fill="#2563EB" opacity="1"/><circle cx="168.47941869811433" cy="170.8990901449591" r="4.4" fill="#2563EB" opacity="1"/><circle cx="175.74526712051735" cy="164.614721522292" r="4.4" fill="#2563EB" opacity="1"/><circle cx="184.22734912844203" cy="160.10471851855232" r="4.4" fill="#2563EB" opacity="1"/><circle cx="193.500337711921" cy="157.59523151648008" r="4.4" fill="#2563EB" opacity="1"/><circle cx="203.09924650275036" cy="157.21209667306437" r="4.4" fill="#2563EB" opacity="1"/><circle cx="212.5427461326054" cy="158.97452596918578" r="4.4" fill="#2563EB" opacity="1"/><circle cx="221.35730009742497" cy="162.79414384067297" r="4.4" fill="#2563EB" opacity="1"/><circle cx="229.1009098550409" cy="168.47941869811433" r="4.4" fill="#2563EB" opacity="1"/><circle cx="235.38527847770803" cy="175.74526712051738" r="4.4" fill="#2563EB" opacity="1"/><circle cx="239.89528148144768" cy="184.22734912844206" r="4.4" fill="#2563EB" opacity="1"/><circle cx="242.40476848351992" cy="193.50033771192102" r="4.4" fill="#2563EB" opacity="1"/><circle cx="242.78790332693563" cy="203.09924650275033" r="4.4" fill="#2563EB" opacity="1"/><circle cx="241.02547403081422" cy="212.5427461326054" r="4.4" fill="#2563EB" opacity="1"/><circle cx="237.20585615932703" cy="221.35730009742497" r="4.4" fill="#2563EB" opacity="1"/><circle cx="231.52058130188564" cy="229.10090985504092" r="4.4" fill="#2563EB" opacity="1"/><circle cx="224.2547328794826" cy="235.38527847770803" r="4.4" fill="#2563EB" opacity="1"/><circle cx="215.77265087155791" cy="239.89528148144768" r="4.4" fill="#2563EB" opacity="1"/><circle cx="206.49966228807898" cy="242.40476848351992" r="4.4" fill="#2563EB" opacity="1"/><circle cx="196.90075349724964" cy="242.78790332693563" r="4.4" fill="#2563EB" opacity="1"/><circle cx="187.45725386739463" cy="241.02547403081422" r="4.4" fill="#2563EB" opacity="1"/><circle cx="178.64269990257503" cy="237.20585615932703" r="4.4" fill="#2563EB" opacity="1"/><circle cx="170.89909014495908" cy="231.52058130188564" r="4.4" fill="#2563EB" opacity="1"/><circle cx="164.61472152229197" cy="224.2547328794826" r="4.4" fill="#2563EB" opacity="1"/><circle cx="137.88439262474495" cy="216.80993219507923" r="5.5" fill="#1D4ED8" opacity="1"/><circle cx="135.70119877594536" cy="202.5664491324611" r="5.5" fill="#1D4ED8" opacity="1"/><circle cx="136.7422153089317" cy="188.1942735937831" r="5.5" fill="#1D4ED8" opacity="1"/><circle cx="140.95524130783357" cy="174.4140864735332" r="5.5" fill="#1D4ED8" opacity="1"/><circle cx="148.1290180570015" cy="161.9168838949709" r="5.5" fill="#1D4ED8" opacity="1"/><circle cx="157.90382243514924" cy="151.3293277791589" r="5.5" fill="#1D4ED8" opacity="1"/><circle cx="169.78950493472792" cy="143.18232239952803" r="5.5" fill="#1D4ED8" opacity="1"/><circle cx="183.1900678049208" cy="137.88439262474495" r="5.5" fill="#1D4ED8" opacity="1"/><circle cx="197.4335508675389" cy="135.70119877594536" r="5.5" fill="#1D4ED8" opacity="1"/><circle cx="211.80572640621685" cy="136.7422153089317" r="5.5" fill="#1D4ED8" opacity="1"/><circle cx="225.58591352646678" cy="140.95524130783355" r="5.5" fill="#1D4ED8" opacity="1"/><circle cx="238.08311610502906" cy="148.1290180570015" r="5.5" fill="#1D4ED8" opacity="1"/><circle cx="248.67067222084108" cy="157.90382243514918" r="5.5" fill="#1D4ED8" opacity="1"/><circle cx="256.81767760047194" cy="169.78950493472786" r="5.5" fill="#1D4ED8" opacity="1"/><circle cx="262.115607375255" cy="183.19006780492074" r="5.5" fill="#1D4ED8" opacity="1"/><circle cx="264.2988012240546" cy="197.43355086753888" r="5.5" fill="#1D4ED8" opacity="1"/><circle cx="263.2577846910683" cy="211.80572640621685" r="5.5" fill="#1D4ED8" opacity="1"/><circle cx="259.04475869216645" cy="225.58591352646678" r="5.5" fill="#1D4ED8" opacity="1"/><circle cx="251.8709819429985" cy="238.08311610502906" r="5.5" fill="#1D4ED8" opacity="1"/><circle cx="242.0961775648508" cy="248.6706722208411" r="5.5" fill="#1D4ED8" opacity="1"/><circle cx="230.21049506527208" cy="256.81767760047194" r="5.5" fill="#1D4ED8" opacity="1"/><circle cx="216.80993219507926" cy="262.115607375255" r="5.5" fill="#1D4ED8" opacity="1"/><circle cx="202.56644913246112" cy="264.2988012240546" r="5.5" fill="#1D4ED8" opacity="1"/><circle cx="188.19427359378312" cy="263.2577846910683" r="5.5" fill="#1D4ED8" opacity="1"/><circle cx="174.41408647353327" cy="259.04475869216645" r="5.5" fill="#1D4ED8" opacity="1"/><circle cx="161.91688389497094" cy="251.8709819429985" r="5.5" fill="#1D4ED8" opacity="1"/><circle cx="151.3293277791589" cy="242.0961775648508" r="5.5" fill="#1D4ED8" opacity="1"/><circle cx="143.18232239952806" cy="230.21049506527208" r="5.5" fill="#1D4ED8" opacity="1"/><circle cx="115.19046303296018" cy="212.99932457615807" r="6.6000000000000005" fill="#4970e4" opacity="1"/><circle cx="114.4241933461287" cy="193.8015069944994" r="6.6000000000000005" fill="#4970e4" opacity="1"/><circle cx="117.94905193837154" cy="174.91450773478923" r="6.6000000000000005" fill="#4970e4" opacity="1"/><circle cx="125.58828768134592" cy="157.28539980515015" r="6.6000000000000005" fill="#4970e4" opacity="1"/><circle cx="136.95883739622866" cy="141.7981802899182" r="6.6000000000000005" fill="#4970e4" opacity="1"/><circle cx="151.49053424103474" cy="129.229443044584" r="6.6000000000000005" fill="#4970e4" opacity="1"/><circle cx="168.45469825688403" cy="120.20943703710465" r="6.6000000000000005" fill="#4970e4" opacity="1"/><circle cx="187.00067542384198" cy="115.19046303296017" r="6.6000000000000005" fill="#4970e4" opacity="1"/><circle cx="206.19849300550072" cy="114.42419334612872" r="6.6000000000000005" fill="#4970e4" opacity="1"/><circle cx="225.0854922652108" cy="117.94905193837155" r="6.6000000000000005" fill="#4970e4" opacity="1"/><circle cx="242.71460019484982" cy="125.5882876813459" r="6.6000000000000005" fill="#4970e4" opacity="1"/><circle cx="258.2018197100818" cy="136.95883739622866" r="6.6000000000000005" fill="#4970e4" opacity="1"/><circle cx="270.77055695541605" cy="151.4905342410348" r="6.6000000000000005" fill="#4970e4" opacity="1"/><circle cx="279.79056296289536" cy="168.45469825688411" r="6.6000000000000005" fill="#4970e4" opacity="1"/><circle cx="284.80953696703983" cy="187.00067542384195" r="6.6000000000000005" fill="#4970e4" opacity="1"/><circle cx="285.57580665387127" cy="206.19849300550064" r="6.6000000000000005" fill="#4970e4" opacity="1"/><circle cx="282.05094806162845" cy="225.0854922652108" r="6.6000000000000005" fill="#4970e4" opacity="1"/><circle cx="274.4117123186541" cy="242.7146001948498" r="6.6000000000000005" fill="#4970e4" opacity="1"/><circle cx="263.0411626037714" cy="258.20181971008174" r="6.6000000000000005" fill="#4970e4" opacity="1"/><circle cx="248.50946575896515" cy="270.77055695541605" r="6.6000000000000005" fill="#4970e4" opacity="1"/><circle cx="231.54530174311583" cy="279.79056296289536" r="6.6000000000000005" fill="#4970e4" opacity="1"/><circle cx="212.99932457615813" cy="284.80953696703983" r="6.6000000000000005" fill="#4970e4" opacity="1"/><circle cx="193.80150699449928" cy="285.57580665387127" r="6.6000000000000005" fill="#4970e4" opacity="1"/><circle cx="174.91450773478925" cy="282.05094806162845" r="6.6000000000000005" fill="#4970e4" opacity="1"/><circle cx="157.2853998051502" cy="274.4117123186541" r="6.6000000000000005" fill="#4970e4" opacity="1"/><circle cx="141.79818028991815" cy="263.0411626037713" r="6.6000000000000005" fill="#4970e4" opacity="1"/><circle cx="129.229443044584" cy="248.5094657589653" r="6.6000000000000005" fill="#4970e4" opacity="1"/><circle cx="120.2094370371046" cy="231.54530174311583" r="6.6000000000000005" fill="#4970e4" opacity="1"/><circle cx="92.83533129324226" cy="204.2774152207685" r="7.700000000000001" fill="#3985fe" opacity="1"/><circle cx="94.57035884821951" cy="180.32378932297183" r="7.700000000000001" fill="#3985fe" opacity="1"/><circle cx="101.59206884638928" cy="157.35681078922195" r="7.700000000000001" fill="#3985fe" opacity="1"/><circle cx="113.5483634283358" cy="136.52813982495158" r="7.700000000000001" fill="#3985fe" opacity="1"/><circle cx="129.83970405858207" cy="118.8822129652648" r="7.700000000000001" fill="#3985fe" opacity="1"/><circle cx="149.64917489121322" cy="105.30387066588007" r="7.700000000000001" fill="#3985fe" opacity="1"/><circle cx="171.98344634153466" cy="96.47398770790824" r="7.700000000000001" fill="#3985fe" opacity="1"/><circle cx="195.7225847792315" cy="92.83533129324226" r="7.700000000000001" fill="#3985fe" opacity="1"/><circle cx="219.67621067702805" cy="94.5703588482195" r="7.700000000000001" fill="#3985fe" opacity="1"/><circle cx="242.64318921077805" cy="101.59206884638928" r="7.700000000000001" fill="#3985fe" opacity="1"/><circle cx="263.47186017504845" cy="113.54836342833583" r="7.700000000000001" fill="#3985fe" opacity="1"/><circle cx="281.1177870347352" cy="129.83970405858204" r="7.700000000000001" fill="#3985fe" opacity="1"/><circle cx="294.6961293341199" cy="149.6491748912132" r="7.700000000000001" fill="#3985fe" opacity="1"/><circle cx="303.52601229209176" cy="171.98344634153455" r="7.700000000000001" fill="#3985fe" opacity="1"/><circle cx="307.16466870675777" cy="195.72258477923148" r="7.700000000000001" fill="#3985fe" opacity="1"/><circle cx="305.4296411517805" cy="219.67621067702817" r="7.700000000000001" fill="#3985fe" opacity="1"/><circle cx="298.4079311536107" cy="242.64318921077805" r="7.700000000000001" fill="#3985fe" opacity="1"/><circle cx="286.45163657166415" cy="263.47186017504845" r="7.700000000000001" fill="#3985fe" opacity="1"/><circle cx="270.160295941418" cy="281.1177870347352" r="7.700000000000001" fill="#3985fe" opacity="1"/><circle cx="250.35082510878664" cy="294.69612933412003" r="7.700000000000001" fill="#3985fe" opacity="1"/><circle cx="228.01655365846534" cy="303.52601229209176" r="7.700000000000001" fill="#3985fe" opacity="1"/><circle cx="204.27741522076852" cy="307.16466870675777" r="7.700000000000001" fill="#3985fe" opacity="1"/><circle cx="180.32378932297186" cy="305.4296411517805" r="7.700000000000001" fill="#3985fe" opacity="1"/><circle cx="157.35681078922198" cy="298.4079311536107" r="7.700000000000001" fill="#3985fe" opacity="1"/><circle cx="136.52813982495155" cy="286.45163657166415" r="7.700000000000001" fill="#3985fe" opacity="1"/><circle cx="118.88221296526481" cy="270.160295941418" r="7.700000000000001" fill="#3985fe" opacity="1"/><circle cx="105.30387066588008" cy="250.3508251087868" r="7.700000000000001" fill="#3985fe" opacity="1"/><circle cx="96.47398770790824" cy="228.01655365846534" r="7.700000000000001" fill="#3985fe" opacity="1"/><circle cx="71.63629001919307" cy="190.70226049174906" r="8.8" fill="#3B82F6" opacity="1"/><circle cx="76.9235779075573" cy="162.37176160218382" r="8.8" fill="#3B82F6" opacity="1"/><circle cx="88.3824315220189" cy="135.92809970772518" r="8.8" fill="#3B82F6" opacity="1"/><circle cx="105.43825609434296" cy="112.69727043487734" r="8.8" fill="#3B82F6" opacity="1"/><circle cx="127.23580136155219" cy="93.84416456687596" r="8.8" fill="#3B82F6" opacity="1"/><circle cx="152.68204738532606" cy="80.31415555565697" r="8.8" fill="#3B82F6" opacity="1"/><circle cx="180.50101313576295" cy="72.78569454944025" r="8.8" fill="#3B82F6" opacity="1"/><circle cx="209.2977395082511" cy="71.63629001919307" r="8.8" fill="#3B82F6" opacity="1"/><circle cx="237.62823839781623" cy="76.92357790755732" r="8.8" fill="#3B82F6" opacity="1"/><circle cx="264.0719002922749" cy="88.38243152201896" r="8.8" fill="#3B82F6" opacity="1"/><circle cx="287.3027295651227" cy="105.438256094343" r="8.8" fill="#3B82F6" opacity="1"/><circle cx="306.155835433124" cy="127.23580136155218" r="8.8" fill="#3B82F6" opacity="1"/><circle cx="319.68584444434305" cy="152.68204738532614" r="8.8" fill="#3B82F6" opacity="1"/><circle cx="327.2143054505598" cy="180.50101313576295" r="8.8" fill="#3B82F6" opacity="1"/><circle cx="328.3637099808069" cy="209.29773950825097" r="8.8" fill="#3B82F6" opacity="1"/><circle cx="323.07642209244267" cy="237.62823839781632" r="8.8" fill="#3B82F6" opacity="1"/><circle cx="311.6175684779811" cy="264.0719002922749" r="8.8" fill="#3B82F6" opacity="1"/><circle cx="294.56174390565707" cy="287.3027295651226" r="8.8" fill="#3B82F6" opacity="1"/><circle cx="272.76419863844774" cy="306.1558354331241" r="8.8" fill="#3B82F6" opacity="1"/><circle cx="247.31795261467374" cy="319.6858444443431" r="8.8" fill="#3B82F6" opacity="1"/><circle cx="219.49898686423694" cy="327.2143054505598" r="8.8" fill="#3B82F6" opacity="1"/><circle cx="190.70226049174892" cy="328.3637099808069" r="8.8" fill="#3B82F6" opacity="1"/><circle cx="162.37176160218368" cy="323.07642209244267" r="8.8" fill="#3B82F6" opacity="1"/><circle cx="135.9280997077251" cy="311.6175684779811" r="8.8" fill="#3B82F6" opacity="1"/><circle cx="112.69727043487724" cy="294.56174390565695" r="8.8" fill="#3B82F6" opacity="1"/><circle cx="93.8441645668759" cy="272.76419863844774" r="8.8" fill="#3B82F6" opacity="1"/><circle cx="80.3141555556569" cy="247.31795261467374" r="8.8" fill="#3B82F6" opacity="1"/><circle cx="72.78569454944024" cy="219.49898686423697" r="8.8" fill="#3B82F6" opacity="1"/><circle cx="52.39850238750728" cy="172.45330505216063" r="9.9" fill="#2563EB" opacity="1"/><circle cx="62.22889638494499" cy="140.29953510491072" r="9.9" fill="#2563EB" opacity="1"/><circle cx="78.96770879967012" cy="111.13939575493221" r="9.9" fill="#2563EB" opacity="1"/><circle cx="101.7755856820148" cy="86.43509815137075" r="9.9" fill="#2563EB" opacity="1"/><circle cx="129.50884484769847" cy="67.42541893223208" r="9.9" fill="#2563EB" opacity="1"/><circle cx="160.77682487814837" cy="55.06358279107155" r="9.9" fill="#2563EB" opacity="1"/><circle cx="194.0116186909241" cy="49.96946381053914" r="9.9" fill="#2563EB" opacity="1"/><circle cx="227.54669494783928" cy="52.39850238750728" r="9.9" fill="#2563EB" opacity="1"/><circle cx="259.7004648950893" cy="62.22889638494499" r="9.9" fill="#2563EB" opacity="1"/><circle cx="288.86060424506786" cy="78.96770879967016" r="9.9" fill="#2563EB" opacity="1"/><circle cx="313.56490184862923" cy="101.77558568201475" r="9.9" fill="#2563EB" opacity="1"/><circle cx="332.5745810677679" cy="129.50884484769847" r="9.9" fill="#2563EB" opacity="1"/><circle cx="344.93641720892845" cy="160.77682487814837" r="9.9" fill="#2563EB" opacity="1"/><circle cx="350.03053618946086" cy="194.01161869092397" r="9.9" fill="#2563EB" opacity="1"/><circle cx="347.6014976124927" cy="227.54669494783928" r="9.9" fill="#2563EB" opacity="1"/><circle cx="337.77110361505504" cy="259.7004648950892" r="9.9" fill="#2563EB" opacity="1"/><circle cx="321.03229120032984" cy="288.86060424506786" r="9.9" fill="#2563EB" opacity="1"/><circle cx="298.22441431798524" cy="313.56490184862923" r="9.9" fill="#2563EB" opacity="1"/><circle cx="270.49115515230153" cy="332.5745810677679" r="9.9" fill="#2563EB" opacity="1"/><circle cx="239.22317512185148" cy="344.93641720892845" r="9.9" fill="#2563EB" opacity="1"/><circle cx="205.98838130907592" cy="350.03053618946086" r="9.9" fill="#2563EB" opacity="1"/><circle cx="172.4533050521606" cy="347.6014976124927" r="9.9" fill="#2563EB" opacity="1"/><circle cx="140.29953510491075" cy="337.77110361505504" r="9.9" fill="#2563EB" opacity="1"/><circle cx="111.13939575493218" cy="321.03229120032984" r="9.9" fill="#2563EB" opacity="1"/><circle cx="86.43509815137072" cy="298.2244143179852" r="9.9" fill="#2563EB" opacity="1"/><circle cx="67.4254189322321" cy="270.49115515230153" r="9.9" fill="#2563EB" opacity="1"/><circle cx="55.063582791071525" cy="239.2231751218515" r="9.9" fill="#2563EB" opacity="1"/><circle cx="49.96946381053914" cy="205.98838130907566" r="9.9" fill="#2563EB" opacity="1"/><circle cx="35.89810387674308" cy="149.82901546957842" r="11" fill="#1D4ED8" opacity="1"/><circle cx="51.176575362691864" cy="114.57079961030024" r="11" fill="#1D4ED8" opacity="1"/><circle cx="73.91767479245735" cy="83.59636057983641" r="11" fill="#1D4ED8" opacity="1"/><circle cx="102.98106848206946" cy="58.45888608916803" r="11" fill="#1D4ED8" opacity="1"/><circle cx="136.90939651376823" cy="40.41887407420924" r="11" fill="#1D4ED8" opacity="1"/><circle cx="174.00135084768394" cy="30.380926065920335" r="11" fill="#1D4ED8" opacity="1"/><circle cx="212.39698601100116" cy="28.848386692257407" r="11" fill="#1D4ED8" opacity="1"/><circle cx="250.17098453042163" cy="35.89810387674311" r="11" fill="#1D4ED8" opacity="1"/><circle cx="285.4292003896999" cy="51.17657536269195" r="11" fill="#1D4ED8" opacity="1"/><circle cx="316.4036394201636" cy="73.91767479245735" r="11" fill="#1D4ED8" opacity="1"/><circle cx="341.54111391083205" cy="102.98106848206957" r="11" fill="#1D4ED8" opacity="1"/><circle cx="359.58112592579073" cy="136.9093965137682" r="11" fill="#1D4ED8" opacity="1"/><circle cx="369.61907393407967" cy="174.00135084768394" r="11" fill="#1D4ED8" opacity="1"/><circle cx="371.1516133077426" cy="212.3969860110013" r="11" fill="#1D4ED8" opacity="1"/><circle cx="364.1018961232569" cy="250.1709845304216" r="11" fill="#1D4ED8" opacity="1"/><circle cx="348.8234246373081" cy="285.4292003896999" r="11" fill="#1D4ED8" opacity="1"/><circle cx="326.0823252075428" cy="316.4036394201635" r="11" fill="#1D4ED8" opacity="1"/><circle cx="297.0189315179306" cy="341.541113910832" r="11" fill="#1D4ED8" opacity="1"/><circle cx="263.09060348623166" cy="359.5811259257908" r="11" fill="#1D4ED8" opacity="1"/><circle cx="225.99864915231592" cy="369.61907393407967" r="11" fill="#1D4ED8" opacity="1"/><circle cx="187.60301398899855" cy="371.15161330774254" r="11" fill="#1D4ED8" opacity="1"/><circle cx="149.82901546957854" cy="364.10189612325695" r="11" fill="#1D4ED8" opacity="1"/><circle cx="114.57079961030014" cy="348.8234246373081" r="11" fill="#1D4ED8" opacity="1"/><circle cx="83.59636057983633" cy="326.08232520754257" r="11" fill="#1D4ED8" opacity="1"/><circle cx="58.45888608916803" cy="297.0189315179306" r="11" fill="#1D4ED8" opacity="1"/><circle cx="40.418874074209214" cy="263.09060348623166" r="11" fill="#1D4ED8" opacity="1"/><circle cx="30.380926065920363" cy="225.99864915231623" r="11" fill="#1D4ED8" opacity="1"/><circle cx="28.848386692257407" cy="187.60301398899887" r="11" fill="#1D4ED8" opacity="1"/>
                </g>
            </svg>